G04 Layer_Color=128*
%FSLAX23Y23*%
%MOIN*%
G70*
G01*
G75*
%ADD29C,0.010*%
%ADD69C,0.002*%
D29*
X3698Y7052D02*
X5501D01*
X3698Y5766D02*
Y7052D01*
Y5766D02*
X5501D01*
Y7052D01*
D69*
X3748Y6656D02*
X3778D01*
X3763Y6641D02*
Y6671D01*
X3748Y6756D02*
X3778D01*
X3763Y6741D02*
Y6771D01*
X3748Y6556D02*
X3778D01*
X3763Y6541D02*
Y6571D01*
X3748Y6361D02*
X3778D01*
X3763Y6346D02*
Y6376D01*
X3748Y6461D02*
X3778D01*
X3763Y6446D02*
Y6476D01*
X3748Y6266D02*
X3778D01*
X3763Y6251D02*
Y6281D01*
X3748Y6166D02*
X3778D01*
X3763Y6151D02*
Y6181D01*
X4273Y6979D02*
X4303D01*
X4288Y6964D02*
Y6994D01*
X4173Y6979D02*
X4203D01*
X4188Y6964D02*
Y6994D01*
X4373Y6979D02*
X4403D01*
X4388Y6964D02*
Y6994D01*
X3821Y6027D02*
X3851D01*
X3836Y6012D02*
Y6042D01*
X3950Y5863D02*
X3980D01*
X3965Y5848D02*
Y5878D01*
X4610Y5881D02*
X4640D01*
X4625Y5866D02*
Y5896D01*
X4510Y5881D02*
X4540D01*
X4525Y5866D02*
Y5896D01*
X4710Y5881D02*
X4740D01*
X4725Y5866D02*
Y5896D01*
X4905Y5881D02*
X4935D01*
X4920Y5866D02*
Y5896D01*
X4805Y5881D02*
X4835D01*
X4820Y5866D02*
Y5896D01*
X5000Y5881D02*
X5030D01*
X5015Y5866D02*
Y5896D01*
X5100Y5881D02*
X5130D01*
X5115Y5866D02*
Y5896D01*
X4403Y5845D02*
X4433D01*
X4418Y5830D02*
Y5860D01*
X4153Y5887D02*
X4183D01*
X4168Y5872D02*
Y5902D01*
X3947Y6846D02*
X3977D01*
X3962Y6831D02*
Y6861D01*
X3947Y6946D02*
X3977D01*
X3962Y6931D02*
Y6961D01*
X5405Y6778D02*
X5435D01*
X5420Y6763D02*
Y6793D01*
X5405Y6678D02*
X5435D01*
X5420Y6663D02*
Y6693D01*
X5405Y6251D02*
X5435D01*
X5420Y6236D02*
Y6266D01*
X5405Y6351D02*
X5435D01*
X5420Y6336D02*
Y6366D01*
X5405Y6467D02*
X5435D01*
X5420Y6452D02*
Y6482D01*
X5405Y6567D02*
X5435D01*
X5420Y6552D02*
Y6582D01*
X5405Y6140D02*
X5435D01*
X5420Y6125D02*
Y6155D01*
X5405Y6040D02*
X5435D01*
X5420Y6025D02*
Y6055D01*
X4444Y6106D02*
X4474D01*
X4459Y6091D02*
Y6121D01*
X4404Y5990D02*
X4434D01*
X4419Y5975D02*
Y6005D01*
X3874Y6444D02*
X3904D01*
X3889Y6429D02*
Y6459D01*
X3876Y6558D02*
X3906D01*
X3891Y6543D02*
Y6573D01*
X4179Y6610D02*
X4231D01*
X4205Y6584D02*
Y6636D01*
X4079Y6610D02*
X4131D01*
X4105Y6584D02*
Y6636D01*
X3979Y6610D02*
X4031D01*
X4005Y6584D02*
Y6636D01*
X4829Y6958D02*
X4859D01*
X4844Y6943D02*
Y6973D01*
X4629Y6958D02*
X4659D01*
X4644Y6943D02*
Y6973D01*
X4729Y6958D02*
X4759D01*
X4744Y6943D02*
Y6973D01*
X4968Y6958D02*
X4998D01*
X4983Y6943D02*
Y6973D01*
X5168Y6958D02*
X5198D01*
X5183Y6943D02*
Y6973D01*
X5068Y6958D02*
X5098D01*
X5083Y6943D02*
Y6973D01*
X5228Y5986D02*
X5240D01*
X5234Y5980D02*
Y5992D01*
X5206Y5945D02*
X5220D01*
X5213Y5938D02*
Y5952D01*
X5270Y5942D02*
X5282D01*
X5276Y5936D02*
Y5948D01*
X5308Y5825D02*
X5320D01*
X5314Y5819D02*
Y5831D01*
X4072Y5834D02*
X4084D01*
X4078Y5828D02*
Y5840D01*
X4562Y5969D02*
X4574D01*
X4568Y5963D02*
Y5975D01*
X4022Y5904D02*
X4034D01*
X4028Y5898D02*
Y5910D01*
X3964Y6294D02*
X3976D01*
X3970Y6288D02*
Y6300D01*
X3734Y7002D02*
X3748D01*
X3741Y6995D02*
Y7009D01*
X4620Y6778D02*
X4634D01*
X4627Y6771D02*
Y6785D01*
X4389Y6628D02*
X4403D01*
X4396Y6621D02*
Y6635D01*
X4645Y6819D02*
X4657D01*
X4651Y6813D02*
Y6825D01*
X3962Y6431D02*
X3974D01*
X3968Y6425D02*
Y6437D01*
X4247Y6788D02*
X4275D01*
X4261Y6774D02*
Y6802D01*
X5379Y6628D02*
X5391D01*
X5385Y6622D02*
Y6634D01*
X4390Y6551D02*
X4404D01*
X4397Y6544D02*
Y6558D01*
X4747Y6587D02*
X4759D01*
X4753Y6581D02*
Y6593D01*
X4786Y6573D02*
X4800D01*
X4793Y6566D02*
Y6580D01*
X4680Y6527D02*
X4692D01*
X4686Y6521D02*
Y6533D01*
X4565Y6741D02*
X4579D01*
X4572Y6734D02*
Y6748D01*
X4220Y6547D02*
X4232D01*
X4226Y6541D02*
Y6553D01*
X3893Y6808D02*
X3905D01*
X3899Y6802D02*
Y6814D01*
X4517Y6749D02*
X4529D01*
X4523Y6743D02*
Y6755D01*
X3947Y6475D02*
X3959D01*
X3953Y6469D02*
Y6481D01*
X5454Y5807D02*
X5466D01*
X5460Y5801D02*
Y5813D01*
X4997Y6264D02*
X5009D01*
X5003Y6258D02*
Y6270D01*
X5224Y6186D02*
X5236D01*
X5230Y6180D02*
Y6192D01*
X4147Y6253D02*
X4159D01*
X4153Y6247D02*
Y6259D01*
X4258Y6214D02*
X4270D01*
X4264Y6208D02*
Y6220D01*
X4121Y6028D02*
X4133D01*
X4127Y6022D02*
Y6034D01*
X5100Y6787D02*
X5112D01*
X5106Y6781D02*
Y6793D01*
X3884Y6138D02*
X3898D01*
X3891Y6131D02*
Y6145D01*
X4564Y6230D02*
X4576D01*
X4570Y6224D02*
Y6236D01*
X4830Y5949D02*
X4842D01*
X4836Y5943D02*
Y5955D01*
X5387Y6414D02*
X5399D01*
X5393Y6408D02*
Y6420D01*
X4990Y6517D02*
X5004D01*
X4997Y6510D02*
Y6524D01*
X5143Y6376D02*
X5157D01*
X5150Y6369D02*
Y6383D01*
X5363Y6196D02*
X5375D01*
X5369Y6190D02*
Y6202D01*
X5125Y6070D02*
X5139D01*
X5132Y6063D02*
Y6077D01*
X3892Y6081D02*
X3906D01*
X3899Y6074D02*
Y6088D01*
X3779Y6924D02*
X3865D01*
X3822Y6881D02*
Y6967D01*
X5357Y6936D02*
X5443D01*
X5400Y6893D02*
Y6979D01*
X3778Y5893D02*
X3864D01*
X3821Y5850D02*
Y5936D01*
X5357Y5899D02*
X5443D01*
X5400Y5856D02*
Y5942D01*
X4103Y6268D02*
X4117D01*
X4110Y6261D02*
Y6275D01*
X4084Y6153D02*
X4098D01*
X4091Y6146D02*
Y6160D01*
X4909Y6913D02*
X4921D01*
X4915Y6907D02*
Y6919D01*
X5282Y6873D02*
X5294D01*
X5288Y6867D02*
Y6879D01*
X4990Y5946D02*
X5002D01*
X4996Y5940D02*
Y5952D01*
X4371Y6297D02*
X4383D01*
X4377Y6291D02*
Y6303D01*
X4168Y6213D02*
X4180D01*
X4174Y6207D02*
Y6219D01*
X3905Y6005D02*
X3917D01*
X3911Y5999D02*
Y6011D01*
X4715Y6449D02*
X4727D01*
X4721Y6443D02*
Y6455D01*
X4598Y6061D02*
X4610D01*
X4604Y6055D02*
Y6067D01*
X4159Y5999D02*
X4171D01*
X4165Y5993D02*
Y6005D01*
X3896Y6269D02*
X3910D01*
X3903Y6262D02*
Y6276D01*
X4830Y6493D02*
X4842D01*
X4836Y6487D02*
Y6499D01*
X4299Y5865D02*
X4311D01*
X4305Y5859D02*
Y5871D01*
X4266Y5830D02*
X4278D01*
X4272Y5824D02*
Y5836D01*
X4012Y5968D02*
X4026D01*
X4019Y5961D02*
Y5975D01*
X4916Y6264D02*
X4928D01*
X4922Y6258D02*
Y6270D01*
X4687Y6355D02*
X4699D01*
X4693Y6349D02*
Y6361D01*
M02*
