G04 Layer_Color=16711935*
%FSLAX23Y23*%
%MOIN*%
G70*
G01*
G75*
%ADD29C,0.010*%
%ADD37C,0.028*%
%ADD61R,0.068X0.068*%
%ADD62C,0.068*%
%ADD63R,0.068X0.068*%
%ADD64C,0.088*%
%ADD65C,0.032*%
%ADD66C,0.036*%
%ADD67C,0.058*%
%ADD68C,0.165*%
D29*
X3698Y7052D02*
X5501D01*
X3698Y5766D02*
Y7052D01*
Y5766D02*
X5501D01*
Y7052D01*
D37*
X4627Y6778D02*
D03*
X4651Y6819D02*
D03*
X3968Y6431D02*
D03*
X4753Y6587D02*
D03*
X4226Y6547D02*
D03*
X3899Y6808D02*
D03*
X4523Y6749D02*
D03*
X4153Y6253D02*
D03*
X5106Y6787D02*
D03*
X4091Y6153D02*
D03*
D61*
X3763Y6656D02*
D03*
X3962Y6946D02*
D03*
D62*
X3763Y6756D02*
D03*
Y6556D02*
D03*
Y6361D02*
D03*
Y6461D02*
D03*
Y6266D02*
D03*
Y6166D02*
D03*
X4288Y6979D02*
D03*
X4388D02*
D03*
X3836Y6027D02*
D03*
X3965Y5863D02*
D03*
X4525Y5881D02*
D03*
X4725D02*
D03*
X4920D02*
D03*
X4820D02*
D03*
X5015D02*
D03*
X5115D02*
D03*
X4418Y5845D02*
D03*
X4168Y5887D02*
D03*
X3962Y6846D02*
D03*
X5420Y6778D02*
D03*
Y6678D02*
D03*
Y6251D02*
D03*
Y6351D02*
D03*
Y6467D02*
D03*
Y6567D02*
D03*
Y6140D02*
D03*
Y6040D02*
D03*
X4459Y6106D02*
D03*
X4419Y5990D02*
D03*
X3889Y6444D02*
D03*
X3891Y6558D02*
D03*
X4844Y6958D02*
D03*
X4744D02*
D03*
X4983D02*
D03*
X5083D02*
D03*
D63*
X4188Y6979D02*
D03*
X4625Y5881D02*
D03*
X4644Y6958D02*
D03*
X5183D02*
D03*
D64*
X4205Y6610D02*
D03*
X4105D02*
D03*
X4005D02*
D03*
D65*
X5234Y5986D02*
D03*
X5276Y5942D02*
D03*
X5314Y5825D02*
D03*
X4078Y5834D02*
D03*
X4568Y5969D02*
D03*
X4028Y5904D02*
D03*
X3970Y6294D02*
D03*
X5385Y6628D02*
D03*
X4686Y6527D02*
D03*
X3953Y6475D02*
D03*
X5460Y5807D02*
D03*
X5003Y6264D02*
D03*
X5230Y6186D02*
D03*
X4264Y6214D02*
D03*
X4127Y6028D02*
D03*
X4836Y5949D02*
D03*
X5393Y6414D02*
D03*
X5369Y6196D02*
D03*
X4915Y6913D02*
D03*
X5288Y6873D02*
D03*
X4996Y5946D02*
D03*
X4377Y6297D02*
D03*
X4174Y6213D02*
D03*
X3911Y6005D02*
D03*
X4721Y6449D02*
D03*
X4604Y6061D02*
D03*
X4165Y5999D02*
D03*
X4836Y6493D02*
D03*
X4305Y5865D02*
D03*
X4272Y5830D02*
D03*
X4922Y6264D02*
D03*
X4693Y6355D02*
D03*
D66*
X5213Y5945D02*
D03*
X3741Y7002D02*
D03*
X4396Y6628D02*
D03*
X4397Y6551D02*
D03*
X4793Y6573D02*
D03*
X4572Y6741D02*
D03*
X3891Y6138D02*
D03*
X4570Y6230D02*
D03*
X4997Y6517D02*
D03*
X5150Y6376D02*
D03*
X5132Y6070D02*
D03*
X3899Y6081D02*
D03*
X4110Y6268D02*
D03*
X3903Y6269D02*
D03*
X4019Y5968D02*
D03*
D67*
X4261Y6788D02*
D03*
D68*
X3822Y6924D02*
D03*
X5400Y6936D02*
D03*
X3821Y5893D02*
D03*
X5400Y5899D02*
D03*
M02*
