M48
;Layer_Color=9474304
;FILE_FORMAT=2:3
INCH,LZ
;TYPE=PLATED
T1F00S00C0.012
T2F00S00C0.014
T3F00S00C0.028
T4F00S00C0.030
T5F00S00C0.051
T6F00S00C0.087
%
T01
X04836Y05949
X04996Y05946
X05234Y05986
X05276Y05942
X05314Y05825
X0546Y05807
X05369Y06196
X0523Y06186
X0457Y0623
X04604Y06061
X04568Y05969
X04305Y05865
X04272Y0583
X04078Y05834
X04028Y05904
X03911Y06005
X04127Y06028
X04165Y05999
X04174Y06213
X04264Y06214
X04153Y06253
X0397Y06294
X03968Y06431
X03953Y06475
X04226Y06547
X04377Y06297
X04686Y06527
X04651Y06819
X04523Y06749
X03899Y06808
X04753Y06587
X04721Y06449
X04693Y06355
X04836Y06493
X04922Y06264
X05003
X05393Y06414
X05385Y06628
X05288Y06873
X05106Y06787
X04915Y06913
T02
X05213Y05945
X05132Y0607
X04091Y06153
X03891Y06138
X03899Y06081
X04019Y05968
X0411Y06268
X03903Y06269
X04397Y06551
X04396Y06628
X04572Y06741
X04627Y06778
X03741Y07002
X04793Y06573
X04997Y06517
X0515Y06376
T03
X04261Y06788
T04
X04725Y05881
X0482
X0492
X05015
X05115
X0542Y0604
Y0614
X04459Y06106
X04419Y0599
X04418Y05845
X04525Y05881
X04625
X04168Y05887
X03965Y05863
X03836Y06027
X03763Y06166
Y06266
Y06361
Y06461
Y06556
Y06656
Y06756
X03962Y06846
Y06946
X04188Y06979
X04288
X04388
X04644Y06958
X03891Y06558
X03889Y06444
X04744Y06958
X04844
X04983
X05083
X05183
X0542Y06778
Y06678
Y06567
Y06467
Y06351
Y06251
T05
X04005Y0661
X04105
X04205
T06
X054Y05899
X03821Y05893
X03822Y06924
X054Y06936
M30
